{
    "asset" : {
        "generator" : "Khronos glTF Blender I/O v1.7.33",
        "version" : "2.0"
    },
    "scene" : 0,
    "scenes" : [
        {
            "name" : "Scene",
            "nodes" : [
                16
            ]
        }
    ],
    "nodes" : [
        {
            "name" : "Bone.004",
            "rotation" : [
                1.0099320491008257e-08,
                0,
                0,
                1
            ],
            "scale" : [
                1,
                0.9999999403953552,
                1
            ],
            "translation" : [
                0,
                2.200000047683716,
                -5.147734327692888e-08
            ]
        },
        {
            "name" : "Bone.003_L.003",
            "translation" : [
                0,
                0.9097186326980591,
                0
            ]
        },
        {
            "children" : [
                1
            ],
            "name" : "Bone.003_L.002",
            "translation" : [
                0,
                0.6491653919219971,
                0
            ]
        },
        {
            "children" : [
                2
            ],
            "name" : "Bone.003_L.001",
            "rotation" : [
                1.915765857063434e-08,
                1.915765857063434e-08,
                -0.7071068286895752,
                0.7071068286895752
            ],
            "translation" : [
                0.6499999761581421,
                1.7999999523162842,
                -7.315178152111912e-08
            ]
        },
        {
            "name" : "Bone.003_R.003",
            "translation" : [
                0,
                0.9097186326980591,
                0
            ]
        },
        {
            "children" : [
                4
            ],
            "name" : "Bone.003_R.002",
            "translation" : [
                0,
                0.6491653919219971,
                0
            ]
        },
        {
            "children" : [
                5
            ],
            "name" : "Bone.003_R.001",
            "rotation" : [
                1.915765857063434e-08,
                -1.915765857063434e-08,
                0.7071068286895752,
                0.7071068286895752
            ],
            "translation" : [
                -0.6499999761581421,
                1.7999999523162842,
                -7.315178152111912e-08
            ]
        },
        {
            "children" : [
                0,
                3,
                6
            ],
            "name" : "Bone.003",
            "rotation" : [
                -1.5630536864819078e-08,
                0,
                0,
                1
            ],
            "translation" : [
                0,
                2.5999886989593506,
                -5.731241259354647e-09
            ]
        },
        {
            "name" : "Bone.002_L.003",
            "rotation" : [
                -5.048709793414476e-29,
                0,
                -2.117582368135751e-22,
                1
            ],
            "translation" : [
                -1.4210854715202004e-14,
                1.0010138750076294,
                5.960464477539063e-08
            ]
        },
        {
            "children" : [
                8
            ],
            "name" : "Bone.002_L.002",
            "rotation" : [
                -1.1462481630530874e-08,
                -3.178651297730539e-08,
                6.458859156874535e-15,
                1
            ],
            "translation" : [
                -3.96837940286332e-09,
                0.8550000190734863,
                -6.170358801682596e-08
            ]
        },
        {
            "children" : [
                9
            ],
            "name" : "Bone.002_L.001",
            "rotation" : [
                8.742277657347586e-08,
                -1.8512493024546365e-29,
                1,
                4.090342854598224e-15
            ],
            "translation" : [
                0.5,
                2.3999886512756348,
                -1.03162349773811e-08
            ]
        },
        {
            "name" : "Bone.002_R.003",
            "rotation" : [
                -5.048709793414476e-29,
                0,
                2.117582368135751e-22,
                1
            ],
            "translation" : [
                1.4210854715202004e-14,
                1.0010138750076294,
                5.960464477539063e-08
            ]
        },
        {
            "children" : [
                11
            ],
            "name" : "Bone.002_R.002",
            "rotation" : [
                -1.1462481630530874e-08,
                3.178651297730539e-08,
                -6.458859156874535e-15,
                1
            ],
            "translation" : [
                3.96837940286332e-09,
                0.8550000190734863,
                -6.170358801682596e-08
            ]
        },
        {
            "children" : [
                12
            ],
            "name" : "Bone.002_R.001",
            "rotation" : [
                8.742277657347586e-08,
                1.8512493024546365e-29,
                -1,
                4.090342854598224e-15
            ],
            "translation" : [
                -0.5,
                2.3999886512756348,
                -1.03162349773811e-08
            ]
        },
        {
            "children" : [
                7,
                10,
                13
            ],
            "name" : "Bone.002",
            "rotation" : [
                -0.7071068286895752,
                0,
                0,
                0.7071068286895752
            ],
            "translation" : [
                0,
                1,
                0.25
            ]
        },
        {
            "mesh" : 0,
            "name" : "Cylinder.008",
            "skin" : 0
        },
        {
            "children" : [
                15,
                14
            ],
            "name" : "Armature",
            "rotation" : [
                0.7071068286895752,
                0,
                0,
                0.7071068286895752
            ],
            "translation" : [
                0,
                0.3499999940395355,
                -1
            ]
        }
    ],
    "materials" : [
        {
            "doubleSided" : true,
            "name" : "Material.005",
            "pbrMetallicRoughness" : {
                "baseColorTexture" : {
                    "index" : 0
                },
                "metallicFactor" : 0,
                "roughnessFactor" : 0.5
            }
        }
    ],
    "meshes" : [
        {
            "name" : "Cylinder.008",
            "primitives" : [
                {
                    "attributes" : {
                        "POSITION" : 0,
                        "NORMAL" : 1,
                        "TEXCOORD_0" : 2,
                        "COLOR_0" : 3,
                        "JOINTS_0" : 4,
                        "WEIGHTS_0" : 5
                    },
                    "indices" : 6,
                    "material" : 0
                }
            ]
        }
    ],
    "textures" : [
        {
            "sampler" : 0,
            "source" : 0
        }
    ],
    "images" : [
        {
            "bufferView" : 7,
            "mimeType" : "image/png",
            "name" : "Prince"
        }
    ],
    "skins" : [
        {
            "inverseBindMatrices" : 7,
            "joints" : [
                14,
                7,
                0,
                3,
                2,
                1,
                6,
                5,
                4,
                10,
                9,
                8,
                13,
                12,
                11
            ],
            "name" : "Armature"
        }
    ],
    "accessors" : [
        {
            "bufferView" : 0,
            "componentType" : 5126,
            "count" : 9590,
            "max" : [
                2.8499999046325684,
                7.973508834838867,
                1.0000001192092896
            ],
            "min" : [
                -2.8499999046325684,
                4.76837158203125e-07,
                -1
            ],
            "type" : "VEC3"
        },
        {
            "bufferView" : 1,
            "componentType" : 5126,
            "count" : 9590,
            "type" : "VEC3"
        },
        {
            "bufferView" : 2,
            "componentType" : 5126,
            "count" : 9590,
            "type" : "VEC2"
        },
        {
            "bufferView" : 3,
            "componentType" : 5123,
            "count" : 9590,
            "normalized" : true,
            "type" : "VEC4"
        },
        {
            "bufferView" : 4,
            "componentType" : 5121,
            "count" : 9590,
            "type" : "VEC4"
        },
        {
            "bufferView" : 5,
            "componentType" : 5126,
            "count" : 9590,
            "type" : "VEC4"
        },
        {
            "bufferView" : 6,
            "componentType" : 5123,
            "count" : 14136,
            "type" : "SCALAR"
        },
        {
            "bufferView" : 8,
            "componentType" : 5126,
            "count" : 15,
            "type" : "MAT4"
        }
    ],
    "bufferViews" : [
        {
            "buffer" : 0,
            "byteLength" : 115080,
            "byteOffset" : 0
        },
        {
            "buffer" : 0,
            "byteLength" : 115080,
            "byteOffset" : 115080
        },
        {
            "buffer" : 0,
            "byteLength" : 76720,
            "byteOffset" : 230160
        },
        {
            "buffer" : 0,
            "byteLength" : 76720,
            "byteOffset" : 306880
        },
        {
            "buffer" : 0,
            "byteLength" : 38360,
            "byteOffset" : 383600
        },
        {
            "buffer" : 0,
            "byteLength" : 153440,
            "byteOffset" : 421960
        },
        {
            "buffer" : 0,
            "byteLength" : 28272,
            "byteOffset" : 575400
        },
        {
            "buffer" : 0,
            "byteLength" : 3028,
            "byteOffset" : 603672
        },
        {
            "buffer" : 0,
            "byteLength" : 960,
            "byteOffset" : 606700
        }
    ],
    "samplers" : [
        {
            "magFilter" : 9729,
            "minFilter" : 9987
        }
    ],
    "buffers" : [
        {
            "byteLength" : 607660,
            "uri" : "data:application/octet-stream;base64,"
        }
    ]
}
